<svg width="62" height="43" viewBox="0 0 62 43" fill="none" xmlns="http://www.w3.org/2000/svg">
<g clip-path="url(#clip0_113_260)">
<path d="M62.0121 42.998H0.307724V6.4149H17.3212V0.112244H44.9986V6.4149H62.0121V42.998ZM3.32466 39.991H58.9951V9.42189H41.9816V3.11924H20.3382V9.42189H3.32466V39.991Z" fill="white"/>
<path d="M31.1589 38.2389C28.3828 38.2389 25.6691 37.4183 23.361 35.881C21.0528 34.3437 19.254 32.1586 18.1919 29.6022C17.1298 27.0457 16.8522 24.2328 17.3942 21.5191C17.9363 18.8055 19.2735 16.313 21.2369 14.3569C23.2003 12.4008 25.7017 11.069 28.4245 10.5299C31.1474 9.99083 33.9695 10.2687 36.534 11.3284C39.0984 12.3881 41.2899 14.1819 42.8313 16.4831C44.3728 18.7843 45.1949 21.4895 45.1937 24.2564C45.1878 27.964 43.7071 31.5181 41.0762 34.1392C38.4452 36.7603 34.8788 38.2347 31.1589 38.2389ZM31.1589 13.2708C28.9799 13.2708 26.8499 13.9148 25.0381 15.1213C23.2263 16.3278 21.8142 18.0426 20.9801 20.049C20.1461 22.0554 19.9277 24.2632 20.3525 26.3933C20.7773 28.5234 21.8262 30.4801 23.3667 32.0161C24.9072 33.552 26.87 34.5982 29.007 35.0224C31.1439 35.4466 33.3591 35.2297 35.3725 34.3992C37.3858 33.5686 39.1068 32.1617 40.3179 30.3563C41.5291 28.5509 42.1759 26.4282 42.1767 24.2564C42.1746 21.3442 41.0132 18.5518 38.9476 16.4922C36.8819 14.4326 34.0807 13.274 31.1589 13.2708Z" fill="white"/>
<path d="M10.0886 16.5505C11.1228 16.5505 11.9611 15.7149 11.9611 14.6842C11.9611 13.6534 11.1228 12.8178 10.0886 12.8178C9.05446 12.8178 8.21611 13.6534 8.21611 14.6842C8.21611 15.7149 9.05446 16.5505 10.0886 16.5505Z" fill="white"/>
<path d="M37.6895 25.2066C37.3113 25.206 36.9472 25.0639 36.669 24.8085C36.3908 24.5532 36.2188 24.2031 36.1871 23.8274C36.0754 22.5729 35.4982 21.405 34.5682 20.5522C33.6382 19.6995 32.4225 19.2233 31.1589 19.2167C30.7588 19.2167 30.3751 19.0583 30.0922 18.7763C29.8093 18.4944 29.6504 18.112 29.6504 17.7132C29.6504 17.3145 29.8093 16.932 30.0922 16.6501C30.3751 16.3681 30.7588 16.2097 31.1589 16.2097C33.1801 16.2178 35.1254 16.978 36.6136 18.3411C38.1018 19.7043 39.0256 21.5722 39.204 23.5789C39.2369 23.9762 39.1103 24.3703 38.852 24.6747C38.5937 24.9791 38.2249 25.1689 37.8263 25.2026L37.6895 25.2066Z" fill="white"/>
</g>
<defs>
<clipPath id="clip0_113_260">
<rect width="62" height="43" fill="white"/>
</clipPath>
</defs>
</svg>
