<svg width="260" height="182" viewBox="0 0 260 182" fill="none" xmlns="http://www.w3.org/2000/svg">
<g clip-path="url(#clip0_112_158)">
<path d="M260.051 181.992H0.0593262V27.1515H71.7458V0.475159H188.364V27.1515H260.051V181.992ZM12.7712 169.264H247.339V39.8788H175.653V13.2024H84.4576V39.8788H12.7712V169.264Z" fill="white"/>
<path d="M41.2712 70.0509C45.6286 70.0509 49.161 66.5142 49.161 62.1515C49.161 57.7888 45.6286 54.2521 41.2712 54.2521C36.9137 54.2521 33.3813 57.7888 33.3813 62.1515C33.3813 66.5142 36.9137 70.0509 41.2712 70.0509Z" fill="white"/>
<path d="M92.8305 74.9042C97.1461 69.0912 102.76 64.3694 109.223 61.1163C115.687 57.8632 122.821 56.169 130.055 56.169C137.289 56.169 144.423 57.8632 150.887 61.1163C157.35 64.3694 162.964 69.0912 167.28 74.9042H182.271C177.244 65.4049 169.727 57.4565 160.527 51.913C151.327 46.3695 140.793 43.4404 130.055 43.4404C119.318 43.4404 108.783 46.3695 99.5834 51.913C90.3836 57.4565 82.8662 65.4049 77.839 74.9042H92.8305Z" fill="white"/>
<path d="M167.119 130.59C162.799 136.345 157.202 141.015 150.769 144.231C144.337 147.447 137.245 149.121 130.055 149.121C122.865 149.121 115.774 147.447 109.341 144.231C102.909 141.015 97.3113 136.345 92.9915 130.59H77.9661C83.014 140.036 90.5281 147.933 99.7068 153.438C108.886 158.944 119.385 161.852 130.085 161.852C140.785 161.852 151.284 158.944 160.463 153.438C169.641 147.933 177.155 140.036 182.203 130.59H167.119Z" fill="white"/>
<path d="M80.322 122.08C78.0946 122.122 75.8724 121.851 73.7204 121.274C72.0662 120.84 70.5253 120.052 69.2034 118.966C68.0444 117.973 67.1405 116.716 66.5678 115.301C65.9642 113.774 65.6453 112.149 65.6271 110.507H73.5509C73.5528 111.172 73.6933 111.829 73.9632 112.437C74.2332 113.045 74.6267 113.589 75.1187 114.036C76.0932 114.885 77.822 115.301 80.322 115.301C82.822 115.301 84.5593 114.91 85.5763 114.113C86.0539 113.762 86.4402 113.301 86.7027 112.77C86.9652 112.238 87.0963 111.651 87.0848 111.058C87.0968 110.388 86.9668 109.723 86.7034 109.107C86.3992 108.48 85.923 107.953 85.3305 107.588C84.5 107.067 83.6129 106.643 82.6865 106.324C81.3178 105.84 79.9229 105.435 78.5085 105.11C76.687 104.675 74.9086 104.076 73.1949 103.32C71.8449 102.736 70.5951 101.943 69.4915 100.97C68.5178 100.08 67.7635 98.9764 67.2882 97.7455C66.787 96.3592 66.5456 94.8922 66.5763 93.4182C66.5633 91.9085 66.8514 90.4113 67.4237 89.0145C67.9862 87.6949 68.8583 86.5307 69.9661 85.6206C71.2339 84.5999 72.6914 83.8414 74.2543 83.3891C76.241 82.825 78.2997 82.5562 80.3644 82.5915C85.0593 82.5915 88.517 83.621 90.7373 85.68C91.849 86.7536 92.7247 88.0477 93.3084 89.4795C93.8921 90.9113 94.1709 92.4493 94.1271 93.9951H86.2627C86.2603 93.3603 86.13 92.7326 85.8795 92.1494C85.6291 91.5662 85.2636 91.0396 84.8051 90.6012C83.9068 89.781 82.4124 89.3681 80.322 89.3624C78.2317 89.3568 76.7288 89.7414 75.8136 90.5164C75.3745 90.8636 75.0214 91.3077 74.7818 91.814C74.5423 92.3202 74.4226 92.875 74.4322 93.4352C74.4148 94.0658 74.5577 94.6906 74.8475 95.2509C75.1698 95.8207 75.6341 96.2971 76.1949 96.6339C76.9719 97.1075 77.8027 97.4864 78.6695 97.7624C79.6949 98.1103 80.9831 98.4667 82.5254 98.8315C84.4572 99.2942 86.3434 99.9303 88.161 100.732C89.5741 101.364 90.8739 102.224 92.0085 103.278C93.0088 104.217 93.7726 105.38 94.2373 106.672C94.7463 108.121 94.9903 109.65 94.9576 111.185C94.9811 112.724 94.6928 114.251 94.1102 115.674C93.531 117.031 92.6256 118.223 91.4746 119.144C90.1214 120.2 88.5671 120.968 86.9068 121.401C84.754 121.932 82.5378 122.161 80.322 122.08Z" fill="white"/>
<path d="M97.8135 83.0242H106.229L115.805 111.389L124.661 83.0242H132.805L119.992 121.579H111.737L97.8135 83.0242Z" fill="white"/>
<path d="M137.424 83.0242H162.458V89.6339H145.297V98.4242H160.424V105.042H145.297V114.97H162.458V121.579H137.424V83.0242Z" fill="white"/>
<path d="M176.602 89.6339H165.585V83.0242H195.509V89.6339H184.492V121.579H176.678L176.602 89.6339Z" fill="white"/>
</g>
<defs>
<clipPath id="clip0_112_158">
<rect width="260" height="182" fill="white"/>
</clipPath>
</defs>
</svg>
